<svg width="195.000000" height="195.000000" viewBox="0 0 195 195" fill="none" xmlns="http://www.w3.org/2000/svg" xmlns:xlink="http://www.w3.org/1999/xlink">
	<g opacity="0.300000">
		<circle id="Ellipse 8" cx="97.500000" cy="97.500000" r="97.500000" fill="#121212" fill-opacity="1.000000"/>
	</g>
	<path id="Play" d="M75.96 70.4C75.96 66.58 80.98 64.36 84.57 65.85C88.7 68.6 123.74 88.63 126.91 91.3C130.08 93.97 130.99 98.22 126.69 101.38C122.4 104.53 88.27 124.92 84.57 126.69C80.88 128.46 76.12 126.05 75.96 121.57C75.81 117.09 75.96 74.21 75.96 70.4ZM81.14 73.71C81.14 74.69 81.11 117.84 81.06 118.73C80.97 120.18 82.21 121.65 83.95 120.78C85.68 119.91 121.52 98.21 122.95 97.65C124.37 97.09 124.28 95.66 122.95 94.76C121.62 93.87 85.12 72.68 84.05 71.75C82.99 70.82 81.14 72.21 81.14 73.71Z" fill="#121212" fill-opacity="1.000000" fill-rule="evenodd"/>
</svg>
