<svg width="331.000000" height="331.000000" viewBox="0 0 331 331" fill="none" xmlns="http://www.w3.org/2000/svg" xmlns:xlink="http://www.w3.org/1999/xlink">
	<rect id="Vector" width="133.000000" height="154.000000" transform="translate(103.000000 71.000000)" fill="#FFFFFF" fill-opacity="0"/>
	<path id="Vector" d="M176.59 71C209.34 71 236 97.6 236 130.31C236 163.02 209.34 189.67 176.59 189.67C165.49 189.67 155.12 186.54 146.21 181.22C145.12 182.51 143.7 184.2 142.03 186.22C138.55 190.45 134.07 195.92 129.69 201.33C120.91 212.17 112.42 222.77 112.42 222.77C112.02 223.35 111.5 223.85 110.9 224.22C110.3 224.59 109.62 224.84 108.92 224.94C108.22 225.04 107.5 225 106.82 224.82C106.13 224.63 105.49 224.31 104.94 223.86C104.38 223.42 103.93 222.87 103.6 222.24C103.26 221.62 103.06 220.93 103.01 220.22C102.96 219.52 103.05 218.81 103.28 218.14C103.51 217.47 103.88 216.85 104.36 216.33C104.36 216.33 112.87 205.71 121.66 194.85C126.06 189.42 130.53 183.93 134.04 179.66C135.53 177.86 136.72 176.42 137.79 175.14C125.19 164.25 117.15 148.21 117.15 130.31C117.15 97.6 143.84 71 176.59 71ZM176.59 81.33C149.43 81.33 127.51 103.19 127.51 130.31C127.51 157.43 149.43 179.32 176.59 179.32C203.75 179.32 225.68 157.43 225.68 130.31C225.68 103.19 203.75 81.33 176.59 81.33Z" fill="#121212" fill-opacity="1.000000" fill-rule="evenodd"/>
	<g opacity="0.300000">
		<circle id="Ellipse 8" cx="165.500000" cy="165.500000" r="165.500000" fill="#121212" fill-opacity="1.000000"/>
	</g>
</svg>
